<?xml version="1.0" encoding="UTF-8" standalone="no"?>
<!-- Created with Inkscape (http://www.inkscape.org/) -->

<svg
   width="1920"
   height="1080"
   viewBox="0 0 507.99999 285.75"
   version="1.1"
   id="svg1"
   inkscape:version="1.4 (e7c3feb100, 2024-10-09)"
   sodipodi:docname="background.svg"
   xmlns:inkscape="http://www.inkscape.org/namespaces/inkscape"
   xmlns:sodipodi="http://sodipodi.sourceforge.net/DTD/sodipodi-0.dtd"
   xmlns:xlink="http://www.w3.org/1999/xlink"
   xmlns="http://www.w3.org/2000/svg"
   xmlns:svg="http://www.w3.org/2000/svg">
  <sodipodi:namedview
     id="namedview1"
     pagecolor="#ffffff"
     bordercolor="#000000"
     borderopacity="0.25"
     inkscape:showpageshadow="2"
     inkscape:pageopacity="0.0"
     inkscape:pagecheckerboard="0"
     inkscape:deskcolor="#d1d1d1"
     inkscape:document-units="mm"
     inkscape:zoom="0.35355339"
     inkscape:cx="1250.1648"
     inkscape:cy="214.96046"
     inkscape:window-width="1920"
     inkscape:window-height="970"
     inkscape:window-x="0"
     inkscape:window-y="0"
     inkscape:window-maximized="1"
     inkscape:current-layer="layer1" />
  <defs
     id="defs1" />
  <g
     inkscape:label="Layer 1"
     inkscape:groupmode="layer"
     id="layer1">
    <path
       style="display:inline;opacity:0.99;fill:#b5b8b1;fill-opacity:1;stroke:none;stroke-width:0.0100351;stroke-miterlimit:4;stroke-dasharray:none;stroke-opacity:1"
       d="m 15.383032,23.907084 c -0.632646,-0.09797 -0.764931,-0.171148 -0.764915,-0.423252 0,-0.212874 0.141782,-0.43707 0.69561,-1.099933 0.961253,-1.150516 2.204798,-2.686603 2.188125,-2.702891 -0.01024,-0.01001 -0.212535,-0.137185 -0.449527,-0.282604 -0.237006,-0.145405 -0.581427,-0.384645 -0.765395,-0.531618 -0.592826,-0.47361 -1.596636,-1.624859 -1.949585,-2.23594 -0.07114,-0.123167 -0.141008,-0.223958 -0.15526,-0.223985 -0.01425,0 -0.107,0.137745 -0.206114,0.306164 -0.477613,0.811591 -2.374817,2.867933 -3.255225,3.528267 -0.51744,0.388115 -0.7665666,0.455337 -0.9076246,0.244925 -0.07472,-0.111444 -0.06969,-0.148315 0.09817,-0.719143 0.5138016,-1.74733 0.6634586,-4.281649 0.3446216,-5.83594 -0.03724,-0.181549 -0.104922,-0.54229 -0.150404,-0.801648 -0.1327886,-0.757217 -0.5617746,-2.129345 -1.1037986,-3.5305223 -0.06892,-0.178163 -0.2013,-0.446188 -0.294177,-0.595616 -0.196315,-0.315844 -0.226564,-0.579515 -0.07554,-0.65851 0.276016,-0.144374 0.530621,-0.0074 1.8366566,0.988148 1.16359,0.8869573 1.404122,1.0821843 1.826474,1.4824853 0.542727,0.514388 0.704846,0.715249 1.391944,1.724567 0.29132,0.427939 0.563397,0.805329 0.604624,0.838644 0.06464,0.05223 0.277285,-0.145589 1.545331,-1.437595 1.352009,-1.377555 1.465479,-1.505806 1.409464,-1.593128 -0.0335,-0.05224 -0.07537,-0.222294 -0.09304,-0.3779083 -0.102089,-0.89915 -0.593596,-1.995642 -1.100717,-2.455594 -0.331719,-0.300861 -1.065286,-0.806136 -1.432405,-0.986627 -0.551396,-0.2711 -0.693263,-0.475371 -0.495686,-0.713756 0.119818,-0.144562 0.216408,-0.181729 0.782514,-0.301063 0.899611,-0.189636 2.01746,-0.07269 3.014568,0.315386 1.390547,0.541207 2.638325,1.352024 2.949704,1.91674 0.13126,0.238056 0.04797,0.227659 -0.224272,-0.028 -0.146808,-0.13786 -0.452346,-0.371245 -0.678986,-0.518625 -0.485812,-0.315917 -1.556833,-0.866501 -2.069065,-1.063674 -0.428213,-0.164817 -0.68715,-0.234678 -0.434245,-0.117159 0.274129,0.127387 0.06332,0.126327 -0.46441,-0.0023 -0.644199,-0.157067 -1.407758,-0.195841 -1.86723,-0.09483 -0.190422,0.04187 -0.364542,0.08668 -0.386935,0.09959 -0.0224,0.01292 0.118737,0.107934 0.313621,0.21115 0.750127,0.39729 1.255583,0.841867 1.677397,1.475328 0.485536,0.729165 0.68506,1.222299 0.872962,2.157587 l 0.05452,0.2713623 0.539345,-0.4753253 c 0.296634,-0.261422 0.778173,-0.630317 1.070088,-0.819762 0.756463,-0.490935 1.721283,-0.989125 1.326864,-0.685128 -0.100951,0.0778 -0.06946,0.07277 0.192998,-0.03086 0.718987,-0.283877 1.816684,-0.634451 2.255829,-0.720456 1.973164,-0.386422 3.659557,-0.162194 5.514327,0.733213 0.62143,0.3 0.81828,0.457083 0.81828,0.653 0,0.119392 -0.13865,0.260305 -0.25614,0.260305 -0.0438,0 -0.24836,0.03034 -0.45456,0.06742 -0.20621,0.03709 -0.53776,0.09194 -0.736791,0.121904 -0.699547,0.105316 -1.709979,0.343327 -2.047396,0.482281 -0.187527,0.07722 -0.389713,0.146806 -0.449305,0.154625 -0.177709,0.02332 -0.585316,0.2923973 -1.095076,0.7228943 l -0.479674,0.405097 0.152942,0.03057 c 0.08412,0.01681 0.462821,0.221168 0.841555,0.454114 0.728301,0.447961 0.965577,0.579054 1.048072,0.579053 0.09353,10e-7 0.05187,-0.425209 -0.09845,-1.004813 -0.08201,-0.316197 -0.152283,-0.699024 -0.156161,-0.850735 -0.0061,-0.2371403 0.0088,-0.2884043 0.106209,-0.3654583 0.225816,-0.178712 0.483761,-0.08144 1.18817,0.4480503 0.265369,0.199468 0.644281,0.471314 0.842019,0.604101 0.299136,0.200878 0.343766,0.246826 0.265696,0.273595 -0.08295,0.02844 -0.07521,0.04159 0.0667,0.113318 0.0883,0.04461 0.22711,0.08299 0.30844,0.08525 0.31576,0.0088 0.37519,-0.308066 0.25678,-1.368974 -0.0793,-0.7106033 -0.0782,-0.8768343 0.005,-0.7954233 0.057,0.05575 0.20782,0.8934973 0.2399,1.3329583 0.0382,0.523174 0.003,0.727467 -0.15734,0.913721 -0.10162,0.118031 -0.15884,0.142855 -0.32935,0.142858 -0.2689,0 -0.761988,-0.242178 -1.208422,-0.593495 -0.404822,-0.318584 -0.847491,-0.630269 -1.105113,-0.778113 l -0.188379,-0.108081 0.03431,0.256511 c 0.01886,0.141082 0.08542,0.4581 0.147898,0.704489 0.164914,0.650374 0.185986,0.824841 0.122362,1.013231 -0.146602,0.434112 -0.536365,0.34936 -1.494187,-0.32489 -0.608955,-0.428675 -0.770816,-0.495479 -0.814885,-0.452408 -0.02975,0.02909 0.04627,0.310965 0.258455,1.060853 0.192301,0.679562 0.147079,0.966691 -0.152231,0.96669 -0.134044,10e-7 -0.586391,-0.167837 -1.1011,-0.408554 -0.185014,-0.08652 -0.374994,-0.157315 -0.422183,-0.157317 -0.137645,0 -0.107464,0.258851 0.107196,0.919539 0.28329,0.871906 0.267304,1.061128 -0.08959,1.060785 -0.17056,0 -0.333138,-0.05363 -0.68116,-0.22399 -0.251418,-0.123083 -0.46492,-0.250317 -0.474464,-0.282747 -0.02038,-0.06931 0.01259,-0.06005 0.545595,0.153272 0.71155,0.284789 0.765342,0.267793 0.626195,-0.197877 -0.04497,-0.150515 -0.08795,-0.316104 -0.09548,-0.367976 -0.0075,-0.05187 -0.05036,-0.189801 -0.09514,-0.30651 -0.04479,-0.116707 -0.108572,-0.338756 -0.141751,-0.493433 l -0.06032,-0.281237 -0.290285,0.422703 c -0.341987,0.497977 -0.643198,1.027818 -0.78986,1.389393 -0.218269,0.538106 -0.437009,1.350803 -0.465187,1.728383 -0.02559,0.342951 -0.01717,0.402679 0.07808,0.553301 0.447287,0.707319 3.644619,2.097997 5.527985,2.404403 0.815702,0.132704 2.522271,0.339184 2.552031,0.308769 0.0108,-0.01095 -0.0316,-0.391277 -0.0942,-0.845153 -0.15934,-1.156561 -0.31895,-1.744761 -0.47342,-1.744761 -0.0819,0 -0.341855,0.352726 -0.847753,1.150336 -0.466133,0.734924 -0.595435,0.87736 -0.796452,0.87736 -0.263922,5e-6 -0.313205,-0.104327 -0.438388,-0.928065 -0.06235,-0.41028 -0.139027,-0.816537 -0.170403,-0.902793 l -0.05705,-0.156832 -0.167681,0.156832 c -0.09222,0.08626 -0.372253,0.404987 -0.622286,0.708282 -0.250037,0.303298 -0.511354,0.595072 -0.580702,0.648389 -0.17246,0.132583 -0.334142,0.12375 -0.432966,-0.02367 -0.07066,-0.105383 -0.07681,-0.212453 -0.04874,-0.848516 0.03586,-0.812741 0.0088,-1.105723 -0.101982,-1.105723 -0.03975,-6e-6 -0.338221,0.254646 -0.66326,0.565869 -0.602631,0.577028 -0.743241,0.656231 -0.842666,0.474651 -0.06449,-0.117756 -0.06342,-0.547036 0.003,-1.211978 0.10561,-1.057109 -0.108289,-1.122534 -1.034965,-0.316548 -0.572068,0.49756 -0.651528,0.557678 -0.688877,0.521183 -0.05057,-0.04943 0.796822,-0.86999 1.109438,-1.074304 0.61748,-0.403572 0.914412,-0.137514 0.8043,0.720708 -0.05647,0.440146 -0.06698,1.216375 -0.01646,1.216375 0.01838,-5e-6 0.284556,-0.256223 0.59152,-0.56939 0.548524,-0.559619 0.56141,-0.569127 0.750649,-0.554082 0.165108,0.01313 0.204568,0.03883 0.276905,0.180358 0.07103,0.138954 0.08427,0.299232 0.0837,1.013857 3e-6,0.565418 -0.01628,0.825182 -0.04743,0.778056 -0.02573,-0.0389 -0.04678,-0.0495 -0.04676,-0.0236 0,0.02594 0.01727,0.07374 0.03837,0.10622 0.0506,0.07789 0.168441,-0.04779 0.730514,-0.779063 0.477942,-0.621815 0.685656,-0.812553 0.884867,-0.812559 0.272988,0 0.34087,0.167727 0.513353,1.26852 0.0498,0.317832 0.104827,0.591824 0.122276,0.608872 0.04546,0.04443 0.155217,-0.104752 0.731446,-0.994131 0.573818,-0.885671 0.708835,-1.027058 0.974053,-1.020028 0.15445,0.0041 0.16173,0.009 0.0566,0.03828 l -0.12062,0.03359 0.12111,0.03051 c 0.0666,0.01678 0.15929,0.09365 0.20594,0.170858 0.12582,0.208161 0.26313,0.91622 0.35303,1.820494 0.0455,0.457644 0.10303,0.816515 0.13407,0.836292 0.0299,0.01905 0.14805,0.03497 0.26258,0.03537 0.30839,0.0012 0.39489,0.06316 0.39489,0.283477 0,0.21435 -0.0997,0.327598 -0.43425,0.493364 -0.24518,0.121473 -1.214571,0.360341 -1.543987,0.380445 -0.119415,0.0073 -0.531946,0.06715 -0.91674,0.133019 -1.165423,0.199496 -1.827232,0.237391 -3.050579,0.17467 -0.958213,-0.04912 -1.867137,-0.136093 -2.293646,-0.219459 l -0.148335,-0.02899 0.04863,0.205528 c 0.06991,0.295541 0.0231,0.738628 -0.103696,0.981532 -0.05952,0.114053 -0.219501,0.32233 -0.355486,0.462851 -0.263789,0.272597 -0.905179,0.679609 -0.934679,0.593123 -0.0158,-0.04631 -0.825659,0.259385 -0.954528,0.3603 -0.101937,0.07982 -0.695855,0.302204 -1.152164,0.431398 -0.434915,0.123132 -0.538443,0.134406 -1.182109,0.128794 -0.393292,-0.0034 -0.93276,-0.04134 -1.219142,-0.08568 z m 1.640893,-0.449149 c 1.035017,-0.206004 1.281573,-0.300887 2.412268,-0.928259 0.933201,-0.517771 1.059485,-0.64696 1.104265,-1.129642 0.02824,-0.304362 0.102129,-0.346889 0.174454,-0.100419 0.05824,0.198495 0.0054,0.436935 -0.145317,0.655063 -0.102686,0.148658 -0.10704,0.165488 -0.02406,0.09283 0.184452,-0.161524 0.296806,-0.459636 0.296517,-0.786728 0,-0.401831 -0.04868,-0.555246 -0.42156,-1.33834 -0.317079,-0.665908 -0.448038,-1.150407 -0.297726,-1.101435 0.07299,0.02378 0.712529,1.055096 0.889518,1.434418 0.120376,0.257982 0.117688,0.256455 0.650285,0.369568 0.763382,0.16215 2.755623,0.2783 3.627738,0.2115 1.544574,-0.118293 3.850976,-0.625958 4.013826,-0.88348 0.0137,-0.02173 -0.28187,-0.06513 -0.65685,-0.09652 -0.793037,-0.06638 -2.476808,-0.302117 -3.0926,-0.432978 -0.234436,-0.04981 -0.733819,-0.199466 -1.109751,-0.332553 -2.457738,-0.870091 -3.940323,-1.719478 -4.099272,-2.348511 -0.01561,-0.0618 -0.0084,-0.283313 0.01594,-0.49226 0.02438,-0.208948 0.03616,-0.387881 0.02617,-0.397645 -0.01,-0.0097 -0.04403,0.132176 -0.07566,0.31542 -0.08339,0.483226 -0.166955,0.431586 -0.128553,-0.07944 0.03516,-0.467833 0.19856,-1.286906 0.264984,-1.328276 0.02424,-0.0151 0.163803,-0.260867 0.310123,-0.546166 0.361607,-0.705025 1.033092,-1.695581 1.575931,-2.324758 0.213914,-0.247936 0.31658,-0.313075 0.257901,-0.163624 -0.01762,0.04488 0.281599,-0.226699 0.664947,-0.603512 0.787852,-0.774432 1.56697,-1.3742683 2.14098,-1.6483203 0.21422,-0.102277 0.628335,-0.252037 0.920247,-0.332796 0.291908,-0.08076 0.563312,-0.174252 0.603112,-0.207754 0.113326,-0.09538 0.391292,-0.139342 0.435813,-0.06893 0.02993,0.04733 0.06688,0.04794 0.178107,0.0029 0.08803,-0.03564 0.184096,-0.04199 0.257771,-0.01704 0.06458,0.02188 0.29112,0.02814 0.50343,0.01392 l 0.38598,-0.02586 -0.26537,-0.170554 c -0.37993,-0.244148 -1.001353,-0.541274 -1.417949,-0.677952 -0.859121,-0.28186 -1.618351,-0.351354 -2.882331,-0.263835 -0.921401,0.0638 -1.280116,0.138752 -2.285799,0.477572 -0.903976,0.304554 -1.672392,0.657929 -2.288274,1.052308 -0.570156,0.3651 -2.019409,1.6198763 -2.656826,2.3002973 -0.849168,0.906464 -2.049595,2.080955 -2.265602,2.216664 -0.251731,0.158149 -0.471393,0.172397 -0.641524,0.0416 -0.06665,-0.05124 -0.257015,-0.321787 -0.423026,-0.601236 -0.548907,-0.9239 -0.817788,-1.284211 -1.319134,-1.767651 C 11.636853,10.866752 10.083986,9.5621487 9.6242754,9.2504597 l -0.337747,-0.228995 0.200405,0.40357 c 0.307525,0.6192633 0.9644556,2.8719493 1.2934556,4.4353823 0.168488,0.800686 0.262102,2.560869 0.17387,3.269173 -0.148689,1.193616 -0.207901,1.595206 -0.299048,2.028231 -0.0537,0.255148 -0.08828,0.47306 -0.07684,0.48424 0.0398,0.03891 1.606704,-1.569064 2.133893,-2.18982 0.291905,-0.343722 0.682728,-0.866408 0.868494,-1.161535 0.185752,-0.295121 0.39038,-0.591315 0.454714,-0.658211 0.22015,-0.228902 0.500557,-0.123686 0.563809,0.211556 0.07583,0.401953 0.689112,1.262872 1.43871,2.019661 0.518213,0.523197 1.046449,0.935324 1.555202,1.213382 l 0.31325,0.171207 0.188443,-0.17984 c 0.203589,-0.194285 0.287655,-0.187749 0.208801,0.01625 -0.09032,0.233659 -1.090723,1.67276 -1.125074,1.618435 -0.03099,-0.049 -0.566272,0.674073 -1.504757,2.032649 -0.330327,0.478197 -0.357243,0.533604 -0.265373,0.546296 0.05624,0.0077 0.134219,0.02481 0.173282,0.03789 0.112459,0.03769 -0.03715,0.111447 -0.227828,0.112319 -0.256505,0.0012 -0.177931,0.08866 0.0965,0.107424 0.684945,0.04683 1.012952,0.02978 1.573505,-0.0818 z m 0.44294,-5.694892 c -0.133983,-0.161835 -0.235768,-0.315685 -0.226192,-0.341885 0.0096,-0.0262 -0.02345,-0.104699 -0.07341,-0.174452 -0.210976,-0.294601 -0.667416,-1.362026 -0.667416,-1.560818 -3e-6,-0.024 0.03411,-0.03084 0.07582,-0.0152 0.06619,0.02482 0.07078,-0.006 0.03618,-0.242527 -0.02179,-0.149022 -0.03964,-0.568039 -0.03963,-0.931138 0,-0.632083 0.0069,-0.678738 0.162727,-1.096365 0.106149,-0.284544 0.187788,-0.436189 0.234808,-0.436192 0.04947,0 0.06376,0.03109 0.04561,0.09897 -0.03437,0.128428 -0.03305,0.126877 0.247164,-0.292648 0.237199,-0.355117 0.46014,-0.560818 0.607817,-0.560815 0.118474,-3e-6 0.0926,0.08507 -0.08891,0.292315 -0.09124,0.104183 -0.28043,0.415245 -0.420422,0.691256 -0.139984,0.276009 -0.271206,0.508781 -0.291614,0.517275 -0.07889,0.03283 -0.129351,0.391957 -0.160181,1.139873 -0.02635,0.639223 -0.01778,0.838682 0.04801,1.117753 0.107957,0.457944 0.319465,0.984948 0.606947,1.51234 0.355804,0.652714 0.312766,0.777576 -0.09731,0.282259 z m -0.789312,-1.978082 c -0.0154,-0.03762 -0.02684,-0.02644 -0.02915,0.0285 -0.0021,0.04971 0.0093,0.07755 0.02535,0.06189 0.01604,-0.01567 0.01775,-0.05634 0.0038,-0.09039 z m -5.195671,0.698379 c 0,-0.08542 0.127428,-0.186845 0.188447,-0.149993 0.02633,0.01598 0.09653,-0.0353 0.155937,-0.113829 0.05941,-0.07853 0.150006,-0.142779 0.201345,-0.142779 0.08159,0 0.08501,0.01004 0.02712,0.07979 -0.05712,0.06881 -0.05626,0.07409 0.0062,0.03839 0.167826,-0.09599 0.337744,-0.233203 0.337747,-0.27274 0,-0.05771 0.202577,-0.21917 0.277434,-0.221112 0.03317,-7.71e-4 0.06031,0.02362 0.06031,0.05441 4e-6,0.03078 0.0609,-0.0012 0.135323,-0.07073 0.07443,-0.0697 0.184723,-0.126721 0.245086,-0.126716 0.09819,-5e-6 0.106406,0.01615 0.07793,0.153254 -0.03293,0.158549 -0.196009,0.336603 -0.268307,0.29293 -0.02269,-0.0136 -0.07472,0.03854 -0.115719,0.116028 -0.05487,0.103698 -0.121502,0.149505 -0.252401,0.173501 -0.09782,0.01794 -0.303596,0.08255 -0.457292,0.143586 -0.315683,0.125364 -0.619112,0.147914 -0.619107,0.04601 z m -0.07196,-1.958357 c -0.173412,-0.02013 -0.245165,-0.05031 -0.256315,-0.107796 -0.01167,-0.06011 0.02996,-0.08686 0.16845,-0.10829 0.10117,-0.01565 0.249083,-0.05618 0.328697,-0.09008 0.326474,-0.138986 0.892619,-0.04825 0.892616,0.14306 3e-6,0.05648 -0.03227,0.06811 -0.132687,0.04782 -0.07298,-0.01475 -0.105541,-0.01529 -0.07237,-0.0012 0.08906,0.03785 0.07328,0.159239 -0.0207,0.159239 -0.04456,6e-6 -0.156659,-0.02652 -0.249124,-0.05894 -0.134483,-0.04715 -0.172162,-0.04715 -0.188379,0 -0.02106,0.06122 -0.06817,0.06285 -0.470182,0.01617 z m 0.880137,-1.687337 c -0.04643,-0.01187 -0.08444,-0.03901 -0.08444,-0.06031 3e-6,-0.02131 -0.08142,-0.04951 -0.180935,-0.06267 -0.09951,-0.01316 -0.39806,-0.100254 -0.663431,-0.193544 -0.454759,-0.159866 -0.632884,-0.273091 -0.574606,-0.365249 0.03239,-0.05123 0.164483,-0.05274 0.16448,-0.0019 0,0.02108 0.09707,0.037 0.215713,0.03536 0.118642,-0.0016 0.215488,0.01826 0.215224,0.0442 -7.71e-4,0.06105 0.300598,0.110862 0.37034,0.06123 0.08878,-0.06318 0.367285,0.01523 0.3928,0.110596 0.01391,0.05197 0.09619,0.106002 0.205073,0.134652 0.232697,0.06124 0.325185,0.160647 0.241342,0.259381 -0.05947,0.07003 -0.138055,0.07999 -0.301562,0.03824 z m 8.706257,-1.804943 c -0.218258,-0.133848 -0.344621,-0.423514 -0.345939,-0.793001 -0.0012,-0.3298323 0.06825,-0.5288083 0.289732,-0.8302213 0.428515,-0.583163 1.127215,-0.519743 1.303005,0.118272 0.02999,0.108885 0.04035,0.271967 0.02298,0.362405 -0.0213,0.1109483 -0.01159,0.1764853 0.02985,0.2015123 0.106037,0.06406 0.07039,0.350709 -0.06928,0.556977 -0.192215,0.283874 -0.467281,0.444174 -0.79766,0.464851 -0.213903,0.01339 -0.307653,-0.0041 -0.432686,-0.08079 z m 0.931234,-0.74126 c 0.103091,-0.189649 0.125931,-0.280928 0.101748,-0.4068713 -0.04084,-0.212794 -0.229854,-0.409637 -0.393328,-0.409638 -0.240739,3e-6 -0.552408,0.433163 -0.552408,0.7677363 2e-6,0.294417 0.437765,0.547496 0.632968,0.365918 0.04296,-0.03996 0.137914,-0.182674 0.211022,-0.317149 z m 2.117833,2.637652 c -0.01732,-0.07132 -0.112983,-0.384321 -0.212585,-0.69555 -0.0996,-0.311227 -0.196334,-0.656159 -0.214961,-0.766507 l -0.03386,-0.200648 -0.128407,0.09135 c -0.223555,0.159033 -0.699219,0.631413 -0.93026,0.923835 l -0.222861,0.282063 0.222861,0.0047 c 0.15903,0.0033 0.374855,0.07326 0.7536,0.244182 0.291918,0.131733 0.590876,0.241038 0.664356,0.242902 0.121713,0.0031 0.130809,-0.0082 0.102113,-0.126286 z"
       id="path4174-7-4-4-0-1-0-2-0-6-3-3-1"
       inkscape:connector-curvature="0"
       sodipodi:nodetypes="csscsssssssssssssssssssssssssssssssssssscssssssssssssscsssssssssssssssssscsssssssssscssssssscssssscsssssscssssssssssssssssscsssssscscscssssssssssscsssssssccsssssscssssssssssscssssssssssscsscssssssssssscssssssssssscsssssssssscsssssssssssssssssccsccssssssssssssssssscssssscssscccsssssccssssccssssssssssssssscssssscsssssssss" />
    <use
       id="use18"
       inkscape:spray-origin="#path4174-7-4-4-0-1-0-2-0-6-3-3-1"
       xlink:href="#path4174-7-4-4-0-1-0-2-0-6-3-3-1"
       transform="matrix(-0.17599264,0.56890604,-0.56890604,-0.17599264,47.30398,24.053426)" />
    <use
       id="use19"
       inkscape:spray-origin="#path4174-7-4-4-0-1-0-2-0-6-3-3-1"
       xlink:href="#path4174-7-4-4-0-1-0-2-0-6-3-3-1"
       transform="matrix(0.6438497,-0.57456906,0.57456906,0.6438497,20.042884,57.014498)" />
    <use
       id="use21"
       inkscape:spray-origin="#path4174-7-4-4-0-1-0-2-0-6-3-3-1"
       xlink:href="#path4174-7-4-4-0-1-0-2-0-6-3-3-1"
       transform="matrix(0.83629476,-0.173698,0.173698,0.83629476,19.660996,74.423245)" />
    <use
       id="use22"
       inkscape:spray-origin="#path4174-7-4-4-0-1-0-2-0-6-3-3-1"
       xlink:href="#path4174-7-4-4-0-1-0-2-0-6-3-3-1"
       transform="matrix(-0.05135633,-1.5401413,1.5401413,-0.05135633,4.5450639,211.45337)" />
    <use
       id="use23"
       inkscape:spray-origin="#path4174-7-4-4-0-1-0-2-0-6-3-3-1"
       xlink:href="#path4174-7-4-4-0-1-0-2-0-6-3-3-1"
       transform="matrix(-0.06364428,0.95650518,-0.95650518,-0.06364428,108.35162,122.61537)" />
    <use
       id="use24"
       inkscape:spray-origin="#path4174-7-4-4-0-1-0-2-0-6-3-3-1"
       xlink:href="#path4174-7-4-4-0-1-0-2-0-6-3-3-1"
       transform="matrix(0.08126626,-1.6465563,1.6465563,0.08126626,61.449925,205.64815)" />
    <use
       id="use25"
       inkscape:spray-origin="#path4174-7-4-4-0-1-0-2-0-6-3-3-1"
       xlink:href="#path4174-7-4-4-0-1-0-2-0-6-3-3-1"
       transform="matrix(0.25504221,-1.5647365,1.5647365,0.25504221,102.35001,212.23254)" />
    <use
       id="use26"
       inkscape:spray-origin="#path4174-7-4-4-0-1-0-2-0-6-3-3-1"
       xlink:href="#path4174-7-4-4-0-1-0-2-0-6-3-3-1"
       transform="matrix(0.74238671,-1.3743115,1.3743115,0.74238671,112.87769,138.38893)" />
    <use
       id="use27"
       inkscape:spray-origin="#path4174-7-4-4-0-1-0-2-0-6-3-3-1"
       xlink:href="#path4174-7-4-4-0-1-0-2-0-6-3-3-1"
       transform="matrix(0.27012892,0.67762162,-0.67762162,0.27012892,180.56706,43.967007)" />
    <use
       id="use28"
       inkscape:spray-origin="#path4174-7-4-4-0-1-0-2-0-6-3-3-1"
       xlink:href="#path4174-7-4-4-0-1-0-2-0-6-3-3-1"
       transform="matrix(0.47693238,-0.25824953,0.25824953,0.47693238,124.0012,9.5642076)" />
    <use
       id="use30"
       inkscape:spray-origin="#path4174-7-4-4-0-1-0-2-0-6-3-3-1"
       xlink:href="#path4174-7-4-4-0-1-0-2-0-6-3-3-1"
       transform="matrix(0.62550526,0.99968991,-0.99968991,0.62550526,64.806282,-2.1553273)" />
    <use
       id="use31"
       inkscape:spray-origin="#path4174-7-4-4-0-1-0-2-0-6-3-3-1"
       xlink:href="#path4174-7-4-4-0-1-0-2-0-6-3-3-1"
       transform="matrix(-0.10729858,1.3313231,-1.3313231,-0.10729858,51.532922,95.620897)" />
    <use
       id="use32"
       inkscape:spray-origin="#path4174-7-4-4-0-1-0-2-0-6-3-3-1"
       xlink:href="#path4174-7-4-4-0-1-0-2-0-6-3-3-1"
       transform="matrix(0.18378107,-0.07130167,0.07130167,0.18378107,33.638225,143.27317)" />
    <use
       id="use33"
       inkscape:spray-origin="#path4174-7-4-4-0-1-0-2-0-6-3-3-1"
       xlink:href="#path4174-7-4-4-0-1-0-2-0-6-3-3-1"
       transform="matrix(0.2249956,0.08026571,-0.08026571,0.2249956,48.6448,194.8254)" />
    <use
       id="use34"
       inkscape:spray-origin="#path4174-7-4-4-0-1-0-2-0-6-3-3-1"
       xlink:href="#path4174-7-4-4-0-1-0-2-0-6-3-3-1"
       transform="matrix(1.0820851,-1.1708319,1.1708319,1.0820851,-5.4471508,248.78774)" />
    <use
       id="use35"
       inkscape:spray-origin="#path4174-7-4-4-0-1-0-2-0-6-3-3-1"
       xlink:href="#path4174-7-4-4-0-1-0-2-0-6-3-3-1"
       transform="matrix(0.35784456,1.3207875,-1.3207875,0.35784456,87.618178,210.75038)" />
    <use
       id="use36"
       inkscape:spray-origin="#path4174-7-4-4-0-1-0-2-0-6-3-3-1"
       xlink:href="#path4174-7-4-4-0-1-0-2-0-6-3-3-1"
       transform="matrix(0.83880697,-0.22296712,0.22296712,0.83880697,93.368272,105.80493)" />
    <use
       id="use37"
       inkscape:spray-origin="#path4174-7-4-4-0-1-0-2-0-6-3-3-1"
       xlink:href="#path4174-7-4-4-0-1-0-2-0-6-3-3-1"
       transform="matrix(0.31153452,0.07144134,-0.07144134,0.31153452,90.613503,36.304662)" />
    <use
       id="use38"
       inkscape:spray-origin="#path4174-7-4-4-0-1-0-2-0-6-3-3-1"
       xlink:href="#path4174-7-4-4-0-1-0-2-0-6-3-3-1"
       transform="matrix(0.38866103,-0.34990326,0.34990326,0.38866103,90.425405,60.54648)" />
    <use
       id="use40"
       inkscape:spray-origin="#path4174-7-4-4-0-1-0-2-0-6-3-3-1"
       xlink:href="#path4174-7-4-4-0-1-0-2-0-6-3-3-1"
       transform="matrix(0.3491196,0.40053127,-0.40053127,0.3491196,12.728396,85.101335)" />
    <use
       id="use41"
       inkscape:spray-origin="#path4174-7-4-4-0-1-0-2-0-6-3-3-1"
       xlink:href="#path4174-7-4-4-0-1-0-2-0-6-3-3-1"
       transform="matrix(0.42397789,-0.12977552,0.12977552,0.42397789,85.791005,104.00294)" />
    <use
       id="use42"
       inkscape:spray-origin="#path4174-7-4-4-0-1-0-2-0-6-3-3-1"
       xlink:href="#path4174-7-4-4-0-1-0-2-0-6-3-3-1"
       transform="matrix(0.46290537,-0.29732106,0.29732106,0.46290537,96.802589,78.93802)" />
    <use
       id="use43"
       inkscape:spray-origin="#path4174-7-4-4-0-1-0-2-0-6-3-3-1"
       xlink:href="#path4174-7-4-4-0-1-0-2-0-6-3-3-1"
       transform="matrix(0.51466988,-0.15755359,0.15755359,0.51466988,71.033137,53.293919)" />
    <use
       id="use44"
       inkscape:spray-origin="#path4174-7-4-4-0-1-0-2-0-6-3-3-1"
       xlink:href="#path4174-7-4-4-0-1-0-2-0-6-3-3-1"
       transform="matrix(-0.06970539,-1.2614181,1.2614181,-0.06970539,65.843244,102.92214)" />
    <use
       id="use45"
       inkscape:spray-origin="#path4174-7-4-4-0-1-0-2-0-6-3-3-1"
       xlink:href="#path4174-7-4-4-0-1-0-2-0-6-3-3-1"
       transform="matrix(0.38817902,-0.26523588,0.26523588,0.38817902,83.873306,122.23179)" />
    <use
       id="use46"
       inkscape:spray-origin="#path4174-7-4-4-0-1-0-2-0-6-3-3-1"
       xlink:href="#path4174-7-4-4-0-1-0-2-0-6-3-3-1"
       transform="matrix(0.71770174,-0.05663901,0.05663901,0.71770174,58.608499,137.90869)" />
    <use
       id="use47"
       inkscape:spray-origin="#path4174-7-4-4-0-1-0-2-0-6-3-3-1"
       xlink:href="#path4174-7-4-4-0-1-0-2-0-6-3-3-1"
       transform="matrix(0.23735813,-0.12432576,0.12432576,0.23735813,145.55849,184.47282)" />
    <use
       id="use48"
       inkscape:spray-origin="#path4174-7-4-4-0-1-0-2-0-6-3-3-1"
       xlink:href="#path4174-7-4-4-0-1-0-2-0-6-3-3-1"
       transform="matrix(0.56397527,-0.43836812,0.43836812,0.56397527,149.44809,204.74532)" />
    <use
       id="use49"
       inkscape:spray-origin="#path4174-7-4-4-0-1-0-2-0-6-3-3-1"
       xlink:href="#path4174-7-4-4-0-1-0-2-0-6-3-3-1"
       transform="matrix(1.2422579,-0.0666503,0.0666503,1.2422579,106.96072,205.14915)" />
    <use
       id="use50"
       inkscape:spray-origin="#path4174-7-4-4-0-1-0-2-0-6-3-3-1"
       xlink:href="#path4174-7-4-4-0-1-0-2-0-6-3-3-1"
       transform="matrix(0.12618906,-0.24845339,0.24845339,0.12618906,129.03673,273.38184)" />
    <use
       id="use51"
       inkscape:spray-origin="#path4174-7-4-4-0-1-0-2-0-6-3-3-1"
       xlink:href="#path4174-7-4-4-0-1-0-2-0-6-3-3-1"
       transform="matrix(0.57974833,0.25571182,-0.25571182,0.57974833,141.58562,236.65929)" />
    <use
       id="use52"
       inkscape:spray-origin="#path4174-7-4-4-0-1-0-2-0-6-3-3-1"
       xlink:href="#path4174-7-4-4-0-1-0-2-0-6-3-3-1"
       transform="matrix(-0.12518142,-0.8669562,0.8669562,-0.12518142,165.49982,253.36625)" />
    <use
       id="use53"
       inkscape:spray-origin="#path4174-7-4-4-0-1-0-2-0-6-3-3-1"
       xlink:href="#path4174-7-4-4-0-1-0-2-0-6-3-3-1"
       transform="matrix(-0.57807404,1.3533926,-1.3533926,-0.57807404,232.24407,182.4907)" />
    <use
       id="use54"
       inkscape:spray-origin="#path4174-7-4-4-0-1-0-2-0-6-3-3-1"
       xlink:href="#path4174-7-4-4-0-1-0-2-0-6-3-3-1"
       transform="matrix(-0.13903814,-0.85005235,0.85005235,-0.13903814,182.61369,172.26594)" />
    <use
       id="use55"
       inkscape:spray-origin="#path4174-7-4-4-0-1-0-2-0-6-3-3-1"
       xlink:href="#path4174-7-4-4-0-1-0-2-0-6-3-3-1"
       transform="matrix(0.59932711,0.03889586,-0.03889586,0.59932711,212.08275,112.99032)" />
    <use
       id="use56"
       inkscape:spray-origin="#path4174-7-4-4-0-1-0-2-0-6-3-3-1"
       xlink:href="#path4174-7-4-4-0-1-0-2-0-6-3-3-1"
       transform="matrix(0.36822957,-0.08888009,0.08888009,0.36822957,205.48224,89.983203)" />
    <use
       id="use57"
       inkscape:spray-origin="#path4174-7-4-4-0-1-0-2-0-6-3-3-1"
       xlink:href="#path4174-7-4-4-0-1-0-2-0-6-3-3-1"
       transform="matrix(0.50643525,0.44560608,-0.44560608,0.50643525,187.69074,74.642334)" />
    <use
       id="use58"
       inkscape:spray-origin="#path4174-7-4-4-0-1-0-2-0-6-3-3-1"
       xlink:href="#path4174-7-4-4-0-1-0-2-0-6-3-3-1"
       transform="matrix(0.27958253,0.17679467,-0.17679467,0.27958253,186.00854,56.764179)" />
    <use
       id="use59"
       inkscape:spray-origin="#path4174-7-4-4-0-1-0-2-0-6-3-3-1"
       xlink:href="#path4174-7-4-4-0-1-0-2-0-6-3-3-1"
       transform="matrix(-0.12371159,-0.35734721,0.35734721,-0.12371159,191.08512,46.30603)" />
    <use
       id="use61"
       inkscape:spray-origin="#path4174-7-4-4-0-1-0-2-0-6-3-3-1"
       xlink:href="#path4174-7-4-4-0-1-0-2-0-6-3-3-1"
       transform="matrix(-0.34480068,-0.8959233,0.8959233,-0.34480068,239.17353,59.676726)" />
    <use
       id="use62"
       inkscape:spray-origin="#path4174-7-4-4-0-1-0-2-0-6-3-3-1"
       xlink:href="#path4174-7-4-4-0-1-0-2-0-6-3-3-1"
       transform="matrix(1.3070973,0.68625884,-0.68625884,1.3070973,272.30161,31.188079)" />
    <use
       id="use63"
       inkscape:spray-origin="#path4174-7-4-4-0-1-0-2-0-6-3-3-1"
       xlink:href="#path4174-7-4-4-0-1-0-2-0-6-3-3-1"
       transform="matrix(0.07439744,0.23678817,-0.23678817,0.07439744,253.79771,104.55941)" />
    <use
       id="use64"
       inkscape:spray-origin="#path4174-7-4-4-0-1-0-2-0-6-3-3-1"
       xlink:href="#path4174-7-4-4-0-1-0-2-0-6-3-3-1"
       transform="matrix(0.10144288,1.5063498,-1.5063498,0.10144288,169.23884,21.61158)" />
    <use
       id="use65"
       inkscape:spray-origin="#path4174-7-4-4-0-1-0-2-0-6-3-3-1"
       xlink:href="#path4174-7-4-4-0-1-0-2-0-6-3-3-1"
       transform="matrix(0.17324386,-0.05296704,0.05296704,0.17324386,201.71294,225.21385)" />
    <use
       id="use66"
       inkscape:spray-origin="#path4174-7-4-4-0-1-0-2-0-6-3-3-1"
       xlink:href="#path4174-7-4-4-0-1-0-2-0-6-3-3-1"
       transform="matrix(0.40627357,-0.49618355,0.49618355,0.40627357,212.25803,245.67542)" />
    <use
       id="use67"
       inkscape:spray-origin="#path4174-7-4-4-0-1-0-2-0-6-3-3-1"
       xlink:href="#path4174-7-4-4-0-1-0-2-0-6-3-3-1"
       transform="matrix(0.13689609,-0.4445511,0.4445511,0.13689609,244.70429,262.01028)" />
    <use
       id="use68"
       inkscape:spray-origin="#path4174-7-4-4-0-1-0-2-0-6-3-3-1"
       xlink:href="#path4174-7-4-4-0-1-0-2-0-6-3-3-1"
       transform="matrix(-0.08073533,0.62397419,-0.62397419,-0.08073533,307.13299,230.55414)" />
    <use
       id="use69"
       inkscape:spray-origin="#path4174-7-4-4-0-1-0-2-0-6-3-3-1"
       xlink:href="#path4174-7-4-4-0-1-0-2-0-6-3-3-1"
       transform="matrix(0.93277065,0.42748542,-0.42748542,0.93277065,276.91614,117.68194)" />
    <use
       id="use70"
       inkscape:spray-origin="#path4174-7-4-4-0-1-0-2-0-6-3-3-1"
       xlink:href="#path4174-7-4-4-0-1-0-2-0-6-3-3-1"
       transform="matrix(0.9002352,1.4242235,-1.4242235,0.9002352,244.74244,43.399923)" />
    <use
       id="use71"
       inkscape:spray-origin="#path4174-7-4-4-0-1-0-2-0-6-3-3-1"
       xlink:href="#path4174-7-4-4-0-1-0-2-0-6-3-3-1"
       transform="matrix(0.15793544,0.4952195,-0.4952195,0.15793544,208.35971,42.521181)" />
    <use
       id="use72"
       inkscape:spray-origin="#path4174-7-4-4-0-1-0-2-0-6-3-3-1"
       xlink:href="#path4174-7-4-4-0-1-0-2-0-6-3-3-1"
       transform="matrix(-0.05193632,-0.20845843,0.20845843,-0.05193632,212.05562,24.745455)" />
    <use
       id="use73"
       inkscape:spray-origin="#path4174-7-4-4-0-1-0-2-0-6-3-3-1"
       xlink:href="#path4174-7-4-4-0-1-0-2-0-6-3-3-1"
       transform="matrix(-0.15154649,0.45647719,-0.45647719,-0.15154649,284.19234,9.5304828)" />
    <use
       id="use74"
       inkscape:spray-origin="#path4174-7-4-4-0-1-0-2-0-6-3-3-1"
       xlink:href="#path4174-7-4-4-0-1-0-2-0-6-3-3-1"
       transform="matrix(0.28859122,-0.22272525,0.22272525,0.28859122,303.44298,19.970889)" />
    <use
       id="use75"
       inkscape:spray-origin="#path4174-7-4-4-0-1-0-2-0-6-3-3-1"
       xlink:href="#path4174-7-4-4-0-1-0-2-0-6-3-3-1"
       transform="matrix(0.36602007,0.08847578,-0.08847578,0.36602007,381.08795,51.66352)" />
    <use
       id="use76"
       inkscape:spray-origin="#path4174-7-4-4-0-1-0-2-0-6-3-3-1"
       xlink:href="#path4174-7-4-4-0-1-0-2-0-6-3-3-1"
       transform="matrix(0.37393479,-0.21365087,0.21365087,0.37393479,448.04957,17.738858)" />
    <use
       id="use77"
       inkscape:spray-origin="#path4174-7-4-4-0-1-0-2-0-6-3-3-1"
       xlink:href="#path4174-7-4-4-0-1-0-2-0-6-3-3-1"
       transform="matrix(0.31584492,-0.47187171,0.47187171,0.31584492,282.33199,122.88657)" />
    <use
       id="use78"
       inkscape:spray-origin="#path4174-7-4-4-0-1-0-2-0-6-3-3-1"
       xlink:href="#path4174-7-4-4-0-1-0-2-0-6-3-3-1"
       transform="matrix(0.03552898,0.77051985,-0.77051985,0.03552898,279.31495,131.45334)" />
    <use
       id="use79"
       inkscape:spray-origin="#path4174-7-4-4-0-1-0-2-0-6-3-3-1"
       xlink:href="#path4174-7-4-4-0-1-0-2-0-6-3-3-1"
       transform="matrix(-0.02536247,0.97635519,-0.97635519,-0.02536247,266.55954,143.33839)" />
    <use
       id="use80"
       inkscape:spray-origin="#path4174-7-4-4-0-1-0-2-0-6-3-3-1"
       xlink:href="#path4174-7-4-4-0-1-0-2-0-6-3-3-1"
       transform="matrix(-0.11311379,-1.7211393,1.7211393,-0.11311379,239.5146,240.3008)" />
    <use
       id="use81"
       inkscape:spray-origin="#path4174-7-4-4-0-1-0-2-0-6-3-3-1"
       xlink:href="#path4174-7-4-4-0-1-0-2-0-6-3-3-1"
       transform="matrix(-0.20760281,-0.45473817,0.45473817,-0.20760281,318.89089,227.23651)" />
    <use
       id="use82"
       inkscape:spray-origin="#path4174-7-4-4-0-1-0-2-0-6-3-3-1"
       xlink:href="#path4174-7-4-4-0-1-0-2-0-6-3-3-1"
       transform="matrix(0.10031684,-0.24119425,0.24119425,0.10031684,354.49684,234.36805)" />
    <use
       id="use83"
       inkscape:spray-origin="#path4174-7-4-4-0-1-0-2-0-6-3-3-1"
       xlink:href="#path4174-7-4-4-0-1-0-2-0-6-3-3-1"
       transform="matrix(0.82864143,0.73336787,-0.73336787,0.82864143,381.65398,203.30385)" />
    <use
       id="use84"
       inkscape:spray-origin="#path4174-7-4-4-0-1-0-2-0-6-3-3-1"
       xlink:href="#path4174-7-4-4-0-1-0-2-0-6-3-3-1"
       transform="matrix(0.25469381,0.5259926,-0.5259926,0.25469381,382.93345,241.65071)" />
    <use
       id="use85"
       inkscape:spray-origin="#path4174-7-4-4-0-1-0-2-0-6-3-3-1"
       xlink:href="#path4174-7-4-4-0-1-0-2-0-6-3-3-1"
       transform="matrix(0.93480392,1.5558274,-1.5558274,0.93480392,432.583,99.560032)" />
    <use
       id="use86"
       inkscape:spray-origin="#path4174-7-4-4-0-1-0-2-0-6-3-3-1"
       xlink:href="#path4174-7-4-4-0-1-0-2-0-6-3-3-1"
       transform="matrix(0.064153,0.21480316,-0.21480316,0.064153,378.10322,54.294097)" />
    <use
       id="use87"
       inkscape:spray-origin="#path4174-7-4-4-0-1-0-2-0-6-3-3-1"
       xlink:href="#path4174-7-4-4-0-1-0-2-0-6-3-3-1"
       transform="matrix(0.9704846,0.84022019,-0.84022019,0.9704846,334.20756,-8.6018135)" />
    <use
       id="use89"
       inkscape:spray-origin="#path4174-7-4-4-0-1-0-2-0-6-3-3-1"
       xlink:href="#path4174-7-4-4-0-1-0-2-0-6-3-3-1"
       transform="matrix(-0.04831805,0.19568175,-0.19568175,-0.04831805,322.18861,122.80993)" />
    <use
       id="use90"
       inkscape:spray-origin="#path4174-7-4-4-0-1-0-2-0-6-3-3-1"
       xlink:href="#path4174-7-4-4-0-1-0-2-0-6-3-3-1"
       transform="matrix(-0.45287984,1.531005,-1.531005,-0.45287984,385.52955,165.45022)" />
    <use
       id="use91"
       inkscape:spray-origin="#path4174-7-4-4-0-1-0-2-0-6-3-3-1"
       xlink:href="#path4174-7-4-4-0-1-0-2-0-6-3-3-1"
       transform="matrix(1.064952,0.47520686,-0.47520686,1.064952,324.5818,103.71315)" />
    <use
       id="use92"
       inkscape:spray-origin="#path4174-7-4-4-0-1-0-2-0-6-3-3-1"
       xlink:href="#path4174-7-4-4-0-1-0-2-0-6-3-3-1"
       transform="matrix(0.63094424,-1.3979496,1.3979496,0.63094424,388.37104,111.08425)" />
    <use
       id="use93"
       inkscape:spray-origin="#path4174-7-4-4-0-1-0-2-0-6-3-3-1"
       xlink:href="#path4174-7-4-4-0-1-0-2-0-6-3-3-1"
       transform="matrix(1.484874,-0.17798664,0.17798664,1.484874,320.49452,66.308248)" />
    <use
       id="use94"
       inkscape:spray-origin="#path4174-7-4-4-0-1-0-2-0-6-3-3-1"
       xlink:href="#path4174-7-4-4-0-1-0-2-0-6-3-3-1"
       transform="matrix(-0.01815482,0.20654198,-0.20654198,-0.01815482,384.21897,86.717036)" />
    <use
       id="use95"
       inkscape:spray-origin="#path4174-7-4-4-0-1-0-2-0-6-3-3-1"
       xlink:href="#path4174-7-4-4-0-1-0-2-0-6-3-3-1"
       transform="matrix(-0.06922068,0.24820619,-0.24820619,-0.06922068,329.19655,109.09633)" />
    <use
       id="use96"
       inkscape:spray-origin="#path4174-7-4-4-0-1-0-2-0-6-3-3-1"
       xlink:href="#path4174-7-4-4-0-1-0-2-0-6-3-3-1"
       transform="matrix(0.25522438,0.38090467,-0.38090467,0.25522438,377.73439,135.75318)" />
    <use
       id="use97"
       inkscape:spray-origin="#path4174-7-4-4-0-1-0-2-0-6-3-3-1"
       xlink:href="#path4174-7-4-4-0-1-0-2-0-6-3-3-1"
       transform="matrix(0.32138043,0.39367515,-0.39367515,0.32138043,441.18783,166.61825)" />
    <use
       id="use98"
       inkscape:spray-origin="#path4174-7-4-4-0-1-0-2-0-6-3-3-1"
       xlink:href="#path4174-7-4-4-0-1-0-2-0-6-3-3-1"
       transform="matrix(0.23701588,-0.11611944,0.11611944,0.23701588,425.8787,191.56705)" />
    <use
       id="use99"
       inkscape:spray-origin="#path4174-7-4-4-0-1-0-2-0-6-3-3-1"
       xlink:href="#path4174-7-4-4-0-1-0-2-0-6-3-3-1"
       transform="matrix(0.33863805,-1.2110694,1.2110694,0.33863805,441.1446,240.73084)" />
    <use
       id="use101"
       inkscape:spray-origin="#path4174-7-4-4-0-1-0-2-0-6-3-3-1"
       xlink:href="#path4174-7-4-4-0-1-0-2-0-6-3-3-1"
       transform="matrix(0.17411476,0.66011698,-0.66011698,0.17411476,423.7891,253.8781)" />
    <use
       id="use102"
       inkscape:spray-origin="#path4174-7-4-4-0-1-0-2-0-6-3-3-1"
       xlink:href="#path4174-7-4-4-0-1-0-2-0-6-3-3-1"
       transform="matrix(-0.17487381,-0.73075187,0.73075187,-0.17487381,436.01084,243.53332)" />
    <use
       id="use103"
       inkscape:spray-origin="#path4174-7-4-4-0-1-0-2-0-6-3-3-1"
       xlink:href="#path4174-7-4-4-0-1-0-2-0-6-3-3-1"
       transform="matrix(-0.35265543,-0.76609651,0.76609651,-0.35265543,396.66336,217.01967)" />
    <use
       id="use104"
       inkscape:spray-origin="#path4174-7-4-4-0-1-0-2-0-6-3-3-1"
       xlink:href="#path4174-7-4-4-0-1-0-2-0-6-3-3-1"
       transform="matrix(0.89481182,-0.90173119,0.90173119,0.89481182,440.37306,95.40554)" />
    <use
       id="use105"
       inkscape:spray-origin="#path4174-7-4-4-0-1-0-2-0-6-3-3-1"
       xlink:href="#path4174-7-4-4-0-1-0-2-0-6-3-3-1"
       transform="matrix(1.2842322,0.39343035,-0.39343035,1.2842322,446.01193,15.511498)" />
    <use
       id="use106"
       inkscape:spray-origin="#path4174-7-4-4-0-1-0-2-0-6-3-3-1"
       xlink:href="#path4174-7-4-4-0-1-0-2-0-6-3-3-1"
       transform="matrix(0.90418793,0.1431301,-0.1431301,0.90418793,379.23622,77.513764)" />
    <use
       id="use107"
       inkscape:spray-origin="#path4174-7-4-4-0-1-0-2-0-6-3-3-1"
       xlink:href="#path4174-7-4-4-0-1-0-2-0-6-3-3-1"
       transform="matrix(0.29033975,0.01365163,-0.01365163,0.29033975,361.07979,101.66599)" />
    <use
       id="use109"
       inkscape:spray-origin="#path4174-7-4-4-0-1-0-2-0-6-3-3-1"
       xlink:href="#path4174-7-4-4-0-1-0-2-0-6-3-3-1"
       transform="matrix(0.39769976,0.23949354,-0.23949354,0.39769976,361.13163,6.7928631)" />
    <use
       id="use110"
       inkscape:spray-origin="#path4174-7-4-4-0-1-0-2-0-6-3-3-1"
       xlink:href="#path4174-7-4-4-0-1-0-2-0-6-3-3-1"
       transform="matrix(0.09746715,0.17509071,-0.17509071,0.09746715,355.43583,40.875252)" />
    <use
       id="use111"
       inkscape:spray-origin="#path4174-7-4-4-0-1-0-2-0-6-3-3-1"
       xlink:href="#path4174-7-4-4-0-1-0-2-0-6-3-3-1"
       transform="matrix(0.09105365,-0.43060938,0.43060938,0.09105365,378.66182,40.285933)" />
    <use
       id="use112"
       inkscape:spray-origin="#path4174-7-4-4-0-1-0-2-0-6-3-3-1"
       xlink:href="#path4174-7-4-4-0-1-0-2-0-6-3-3-1"
       transform="matrix(0.14311269,-0.1965872,0.1965872,0.14311269,319.046,78.065542)" />
    <use
       id="use113"
       inkscape:spray-origin="#path4174-7-4-4-0-1-0-2-0-6-3-3-1"
       xlink:href="#path4174-7-4-4-0-1-0-2-0-6-3-3-1"
       transform="matrix(0.14346098,0.58973585,-0.58973585,0.14346098,293.65455,81.983165)" />
    <use
       id="use114"
       inkscape:spray-origin="#path4174-7-4-4-0-1-0-2-0-6-3-3-1"
       xlink:href="#path4174-7-4-4-0-1-0-2-0-6-3-3-1"
       transform="matrix(-0.04836569,0.36978097,-0.36978097,-0.04836569,427.56591,44.945557)" />
    <use
       id="use116"
       inkscape:spray-origin="#path4174-7-4-4-0-1-0-2-0-6-3-3-1"
       xlink:href="#path4174-7-4-4-0-1-0-2-0-6-3-3-1"
       transform="matrix(-0.17979365,0.42064521,-0.42064521,-0.17979365,405.02063,2.7512076)" />
    <use
       id="use118"
       inkscape:spray-origin="#path4174-7-4-4-0-1-0-2-0-6-3-3-1"
       xlink:href="#path4174-7-4-4-0-1-0-2-0-6-3-3-1"
       transform="matrix(0.14679302,-0.44991252,0.44991252,0.14679302,455.31987,123.39608)" />
    <use
       id="use119"
       inkscape:spray-origin="#path4174-7-4-4-0-1-0-2-0-6-3-3-1"
       xlink:href="#path4174-7-4-4-0-1-0-2-0-6-3-3-1"
       transform="matrix(0.63238944,-1.1906039,1.1906039,0.63238944,447.69971,181.17279)" />
    <use
       id="use120"
       inkscape:spray-origin="#path4174-7-4-4-0-1-0-2-0-6-3-3-1"
       xlink:href="#path4174-7-4-4-0-1-0-2-0-6-3-3-1"
       transform="matrix(0.22117739,0.16063199,-0.16063199,0.22117739,461.65701,180.87115)" />
    <use
       id="use121"
       inkscape:spray-origin="#path4174-7-4-4-0-1-0-2-0-6-3-3-1"
       xlink:href="#path4174-7-4-4-0-1-0-2-0-6-3-3-1"
       transform="matrix(0.05491509,-0.59147835,0.59147835,0.05491509,484.10357,280.94653)" />
    <use
       id="use123"
       inkscape:spray-origin="#path4174-7-4-4-0-1-0-2-0-6-3-3-1"
       xlink:href="#path4174-7-4-4-0-1-0-2-0-6-3-3-1"
       transform="matrix(0.63641815,-0.02975523,0.02975523,0.63641815,235.98598,231.96785)" />
    <use
       id="use124"
       inkscape:spray-origin="#path4174-7-4-4-0-1-0-2-0-6-3-3-1"
       xlink:href="#path4174-7-4-4-0-1-0-2-0-6-3-3-1"
       transform="matrix(-0.00875233,-0.43206755,0.43206755,-0.00875233,215.81019,234.03595)" />
    <use
       id="use125"
       inkscape:spray-origin="#path4174-7-4-4-0-1-0-2-0-6-3-3-1"
       xlink:href="#path4174-7-4-4-0-1-0-2-0-6-3-3-1"
       transform="matrix(-0.23871169,-0.86839439,0.86839439,-0.23871169,337.52135,280.50766)" />
    <use
       id="use126"
       inkscape:spray-origin="#path4174-7-4-4-0-1-0-2-0-6-3-3-1"
       xlink:href="#path4174-7-4-4-0-1-0-2-0-6-3-3-1"
       transform="matrix(0.71917824,0.25511418,-0.25511418,0.71917824,485.59179,123.08818)" />
    <use
       id="use129"
       inkscape:spray-origin="#path4174-7-4-4-0-1-0-2-0-6-3-3-1"
       xlink:href="#path4174-7-4-4-0-1-0-2-0-6-3-3-1"
       transform="matrix(-0.10736774,0.44281933,-0.44281933,-0.10736774,246.52286,130.14811)" />
    <use
       id="use133"
       inkscape:spray-origin="#path4174-7-4-4-0-1-0-2-0-6-3-3-1"
       xlink:href="#path4174-7-4-4-0-1-0-2-0-6-3-3-1"
       transform="matrix(0.13371148,0.26836529,-0.26836529,0.13371148,294.95191,272.8171)" />
    <use
       id="use134"
       inkscape:spray-origin="#path4174-7-4-4-0-1-0-2-0-6-3-3-1"
       xlink:href="#path4174-7-4-4-0-1-0-2-0-6-3-3-1"
       transform="matrix(0.34103987,0.17122872,-0.17122872,0.34103987,256.43895,266.36278)" />
    <use
       id="use135"
       inkscape:spray-origin="#path4174-7-4-4-0-1-0-2-0-6-3-3-1"
       xlink:href="#path4174-7-4-4-0-1-0-2-0-6-3-3-1"
       transform="matrix(0.35958615,0.42814588,-0.42814588,0.35958615,231.98794,251.92905)" />
    <use
       id="use136"
       inkscape:spray-origin="#path4174-7-4-4-0-1-0-2-0-6-3-3-1"
       xlink:href="#path4174-7-4-4-0-1-0-2-0-6-3-3-1"
       transform="matrix(0.23821199,-0.2146352,0.2146352,0.23821199,236.70226,265.75249)" />
    <use
       id="use137"
       inkscape:spray-origin="#path4174-7-4-4-0-1-0-2-0-6-3-3-1"
       xlink:href="#path4174-7-4-4-0-1-0-2-0-6-3-3-1"
       transform="matrix(0.23314586,-0.69405066,0.69405066,0.23314586,193.87371,273.85642)" />
    <use
       id="use138"
       inkscape:spray-origin="#path4174-7-4-4-0-1-0-2-0-6-3-3-1"
       xlink:href="#path4174-7-4-4-0-1-0-2-0-6-3-3-1"
       transform="matrix(0.85097234,-0.59817934,0.59817934,0.85097234,157.56334,266.05904)" />
    <use
       id="use139"
       inkscape:spray-origin="#path4174-7-4-4-0-1-0-2-0-6-3-3-1"
       xlink:href="#path4174-7-4-4-0-1-0-2-0-6-3-3-1"
       transform="matrix(0.24983984,-0.12607297,0.12607297,0.24983984,288.30487,171.01929)" />
    <use
       id="use140"
       inkscape:spray-origin="#path4174-7-4-4-0-1-0-2-0-6-3-3-1"
       xlink:href="#path4174-7-4-4-0-1-0-2-0-6-3-3-1"
       transform="matrix(0.12340091,0.21419787,-0.21419787,0.12340091,293.4028,177.44489)" />
    <use
       id="use141"
       inkscape:spray-origin="#path4174-7-4-4-0-1-0-2-0-6-3-3-1"
       xlink:href="#path4174-7-4-4-0-1-0-2-0-6-3-3-1"
       transform="matrix(0.30805482,-0.41200031,0.41200031,0.30805482,298.65466,169.95727)" />
  </g>
</svg>
